<?xml version="1.0" encoding="UTF-8" standalone="no"?>
<svg
   viewBox="103.0118 186.3636 663.0722 130.8677"
   width="1053.46px"
   height="207.918px"
   preserveAspectRatio="none"
   version="1.1"
   id="svg1"
   sodipodi:docname="base_spade.svg"
   inkscape:version="1.3.2 (091e20ef0f, 2023-11-25)"
   xmlns:inkscape="http://www.inkscape.org/namespaces/inkscape"
   xmlns:sodipodi="http://sodipodi.sourceforge.net/DTD/sodipodi-0.dtd"
   xmlns="http://www.w3.org/2000/svg"
   xmlns:svg="http://www.w3.org/2000/svg">
  <defs
     id="defs1">
    <filter
       inkscape:collect="always"
       style="color-interpolation-filters:sRGB"
       id="filter1"
       x="-0.0033041746"
       y="-0.016083996"
       width="1.0054497"
       height="1.0321676">
      <feGaussianBlur
         inkscape:collect="always"
         stdDeviation="0.49621152"
         id="feGaussianBlur1" />
    </filter>
  </defs>
  <sodipodi:namedview
     id="namedview1"
     pagecolor="#ffffff"
     bordercolor="#000000"
     borderopacity="0.25"
     inkscape:showpageshadow="2"
     inkscape:pageopacity="0.0"
     inkscape:pagecheckerboard="0"
     inkscape:deskcolor="#d1d1d1"
     inkscape:zoom="1.2881363"
     inkscape:cx="526.72998"
     inkscape:cy="103.6381"
     inkscape:window-width="1920"
     inkscape:window-height="1011"
     inkscape:window-x="0"
     inkscape:window-y="0"
     inkscape:window-maximized="1"
     inkscape:current-layer="svg1" />
  <g
     id="object-4"
     style="stroke:#244224;stroke-opacity:1;filter:url(#filter1)">
    <polygon
       style="fill:rgb(100, 149, 237);stroke:#244224;stroke-width:2px;stroke-opacity:1"
       points="135.12 232.474 135.012 267.186 227.168 268.211 227.276 233.499"
       id="object-0" />
    <path
       style="fill:rgb(100, 149, 237);stroke:#244224;stroke-width:2px;transform-origin:109.733px 249.674px;stroke-opacity:1"
       d="M 103.012 272.492 L 103.283 226.64 C 103.321 220.131 108.415 214.895 114.662 214.945 L 125.355 215.03 C 131.6 215.079 136.633 220.395 136.595 226.904 L 136.324 272.758 C 136.286 279.266 131.192 284.502 124.945 284.452 L 114.252 284.367 C 108.006 284.317 102.974 279 103.012 272.492"
       id="object-1" />
    <path
       style="fill:rgb(100, 149, 237);stroke:#244224;stroke-width:1.82709px;transform-origin:252.132px 251.769px;stroke-opacity:1"
       d="M 213.865 251.186 L 213.869 250.5 C 214.204 230.135 223.955 210.423 241.317 194.063 C 251.126 184.818 271.444 183.645 283.25 191.925 C 291.699 197.859 292.931 206.847 285.768 213.409 C 273.985 224.214 267.548 237.192 267.319 251.049 C 267.473 265.552 273.689 279.057 285.714 290.488 C 292.73 297.168 291.154 306.175 282.488 311.938 L 282.448 311.964 C 270.924 319.637 251.044 318.886 241.702 309.979 C 223.642 292.778 213.741 272.204 213.865 251.186"
       id="object-2" />
    <path
       style="fill:rgb(100, 149, 237);stroke:#244224;stroke-width:2px;transform-origin:512.043px 249.241px;stroke-opacity:1"
       d="M 257.963 250.891 C 258.109 261.1 263.111 270.63 272.262 279.044 L 645.298 280.896 L 766.084 253.416 L 645.671 224.735 L 273.61 222.888 C 263.761 231.123 258.165 240.677 257.963 250.891"
       id="object-3" />
  </g>
</svg>
