<?xml version="1.0" encoding="UTF-8" standalone="no"?>
<svg
   viewBox="342.4886 135.6847 509.429 343.0389"
   width="509.429px"
   height="343.039px"
   preserveAspectRatio="none"
   version="1.1"
   id="svg39"
   sodipodi:docname="base_semi.svg"
   inkscape:version="1.3.2 (091e20ef0f, 2023-11-25)"
   xmlns:inkscape="http://www.inkscape.org/namespaces/inkscape"
   xmlns:sodipodi="http://sodipodi.sourceforge.net/DTD/sodipodi-0.dtd"
   xmlns="http://www.w3.org/2000/svg"
   xmlns:svg="http://www.w3.org/2000/svg">
  <defs
     id="defs39">
    <filter
       inkscape:collect="always"
       style="color-interpolation-filters:sRGB"
       id="filter39"
       x="-0.035506485"
       y="-0.017973751"
       width="1.0573876"
       height="1.0359471">
      <feGaussianBlur
         inkscape:collect="always"
         stdDeviation="0.59925648"
         id="feGaussianBlur39" />
    </filter>
    <filter
       inkscape:collect="always"
       style="color-interpolation-filters:sRGB"
       id="filter40"
       x="-0.037987094"
       y="-0.020067856"
       width="1.0623488"
       height="1.0287128">
      <feGaussianBlur
         inkscape:collect="always"
         stdDeviation="0.5265397"
         id="feGaussianBlur40" />
    </filter>
  </defs>
  <sodipodi:namedview
     id="namedview39"
     pagecolor="#ffffff"
     bordercolor="#000000"
     borderopacity="0.25"
     inkscape:showpageshadow="2"
     inkscape:pageopacity="0.0"
     inkscape:pagecheckerboard="0"
     inkscape:deskcolor="#d1d1d1"
     inkscape:zoom="2.3466719"
     inkscape:cx="254.6159"
     inkscape:cy="171.5195"
     inkscape:window-width="1920"
     inkscape:window-height="1011"
     inkscape:window-x="0"
     inkscape:window-y="0"
     inkscape:window-maximized="1"
     inkscape:current-layer="svg39" />
  <g
     id="g40"
     style="stroke:#244224;stroke-opacity:1;filter:url(#filter40)">
    <g
       id="g-2"
       transform="matrix(0.52849182,0,0,0.52342369,371.02419,165.17785)"
       style="mix-blend-mode:normal;stroke:#244224;stroke-opacity:1;filter:url(#filter39)">
      <path
         style="fill:#efb832;stroke:#244224;stroke-width:2px;stroke-opacity:1"
         d="M 256,512 C 114.841,512 0,397.159 0,256 0,114.841 114.841,0 256,0 397.159,0 512,114.841 512,256 512,397.159 397.159,512 256,512 Z"
         id="path13" />
      <g
         style="opacity:0.5;stroke:#244224;stroke-opacity:1"
         id="g14">
        <path
           style="fill:#ae8132;stroke:#244224;stroke-width:2px;stroke-opacity:1"
           d="M 256.001,472.633 C 136.549,472.633 39.368,375.452 39.368,256 c 0,-119.452 97.18,-216.633 216.633,-216.633 119.452,0 216.633,97.18 216.633,216.633 0,119.453 -97.181,216.633 -216.633,216.633 z m 0,-378.029 c -88.994,0 -161.396,72.402 -161.396,161.396 0,88.994 72.402,161.396 161.396,161.396 88.994,0 161.396,-72.402 161.396,-161.396 0,-88.994 -72.403,-161.396 -161.396,-161.396 z"
           id="path14" />
      </g>
      <g
         id="g22"
         style="stroke:#244224;stroke-opacity:1">
        <path
           style="fill:#efb832;stroke:#244224;stroke-width:2px;stroke-opacity:1"
           d="m 184,82.265 c 0.458,1.164 0.856,2.222 1.187,3.17 0.334,0.946 0.576,1.846 0.725,2.697 0.15,0.847 0.19,1.669 0.117,2.461 -0.069,0.789 -0.291,1.617 -0.664,2.474 -0.497,1.144 -1.183,2.144 -2.057,3.002 -0.874,0.854 -2.02,1.563 -3.434,2.118 -1.411,0.555 -2.736,0.819 -3.972,0.791 -1.236,-0.028 -2.425,-0.287 -3.572,-0.786 -0.855,-0.376 -1.579,-0.827 -2.17,-1.359 -0.593,-0.529 -1.119,-1.161 -1.572,-1.89 -0.461,-0.729 -0.888,-1.553 -1.29,-2.473 -0.405,-0.924 -0.833,-1.965 -1.291,-3.129 -0.456,-1.162 -0.851,-2.217 -1.183,-3.166 -0.336,-0.95 -0.582,-1.846 -0.745,-2.692 -0.16,-0.841 -0.208,-1.661 -0.134,-2.453 0.069,-0.791 0.293,-1.617 0.664,-2.474 0.499,-1.144 1.189,-2.146 2.077,-3.009 0.885,-0.861 2.034,-1.568 3.45,-2.123 1.414,-0.558 2.733,-0.819 3.957,-0.786 1.221,0.031 2.408,0.295 3.552,0.791 0.857,0.373 1.581,0.829 2.172,1.359 0.591,0.532 1.118,1.161 1.59,1.884 0.469,0.724 0.905,1.548 1.307,2.466 0.4,0.922 0.833,1.966 1.286,3.127 z m -4.753,1.869 c -0.458,-1.162 -0.86,-2.116 -1.204,-2.861 -0.347,-0.745 -0.665,-1.35 -0.954,-1.817 -0.289,-0.467 -0.566,-0.825 -0.836,-1.07 -0.27,-0.253 -0.567,-0.459 -0.893,-0.619 -0.495,-0.255 -1.047,-0.396 -1.653,-0.437 -0.608,-0.039 -1.241,0.074 -1.902,0.336 -0.66,0.257 -1.205,0.611 -1.622,1.05 -0.419,0.444 -0.736,0.926 -0.947,1.457 -0.128,0.343 -0.208,0.697 -0.233,1.062 -0.028,0.365 0.011,0.817 0.117,1.356 0.108,0.538 0.294,1.195 0.559,1.973 0.268,0.778 0.629,1.749 1.088,2.912 0.456,1.162 0.851,2.119 1.187,2.867 0.334,0.753 0.645,1.354 0.929,1.81 0.284,0.456 0.559,0.807 0.826,1.055 0.272,0.252 0.569,0.454 0.898,0.618 0.514,0.241 1.08,0.39 1.694,0.438 0.611,0.05 1.246,-0.056 1.91,-0.318 0.659,-0.26 1.198,-0.613 1.612,-1.068 0.412,-0.453 0.715,-0.941 0.904,-1.461 0.13,-0.341 0.208,-0.695 0.236,-1.06 0.026,-0.367 -0.009,-0.813 -0.112,-1.34 -0.101,-0.525 -0.279,-1.177 -0.534,-1.961 -0.258,-0.783 -0.613,-1.759 -1.07,-2.922 z"
           id="path15" />
        <path
           style="fill:#efb832;stroke:#244224;stroke-width:2px;stroke-opacity:1"
           d="m 208.075,89.001 -14.273,-12.715 4.284,15.481 -4.922,1.363 -6.984,-25.224 4.395,-1.215 14.263,12.682 -4.276,-15.446 4.927,-1.361 6.981,25.22 z"
           id="path16" />
        <path
           style="fill:#efb832;stroke:#244224;stroke-width:2px;stroke-opacity:1"
           d="m 217.723,86.957 -3.763,-25.9 17.059,-2.478 0.655,4.511 -12.002,1.744 0.88,6.072 10.224,-1.482 0.652,4.506 -10.219,1.486 0.915,6.295 12.004,-1.744 0.657,4.508 z"
           id="path17" />
        <path
           style="fill:#efb832;stroke:#244224;stroke-width:2px;stroke-opacity:1"
           d="m 266.141,65.704 c -0.005,1.105 -0.205,2.15 -0.602,3.141 -0.396,0.993 -0.962,1.859 -1.7,2.604 -0.738,0.744 -1.649,1.33 -2.728,1.753 -1.081,0.428 -2.293,0.637 -3.638,0.632 l -5.039,-0.022 -0.038,9.852 -5.108,-0.018 0.101,-26.174 10.144,0.04 c 1.348,0.005 2.562,0.224 3.64,0.657 1.076,0.431 1.979,1.026 2.712,1.774 0.731,0.752 1.293,1.624 1.68,2.617 0.389,0.997 0.579,2.039 0.576,3.144 z m -5.11,-0.018 c 0.006,-1.078 -0.329,-1.95 -1,-2.613 -0.671,-0.665 -1.596,-1.002 -2.771,-1.003 l -4.78,-0.02 -0.026,7.165 4.78,0.02 c 1.173,0.004 2.101,-0.316 2.776,-0.962 0.675,-0.646 1.017,-1.509 1.021,-2.587 z"
           id="path18" />
        <path
           style="fill:#efb832;stroke:#244224;stroke-width:2px;stroke-opacity:1"
           d="m 269.683,84.046 2.934,-26.005 17.129,1.93 -0.51,4.529 -12.054,-1.357 -0.686,6.1 10.263,1.155 -0.512,4.531 -10.264,-1.158 -0.712,6.319 12.054,1.357 -0.51,4.531 z"
           id="path19" />
        <path
           style="fill:#efb832;stroke:#244224;stroke-width:2px;stroke-opacity:1"
           d="m 306.119,90.148 -6.472,-17.989 -3.624,15.652 -4.979,-1.154 5.906,-25.498 4.439,1.029 6.484,17.953 3.615,-15.613 4.979,1.154 -5.904,25.496 z"
           id="path20" />
        <path
           style="fill:#efb832;stroke:#244224;stroke-width:2px;stroke-opacity:1"
           d="m 330.211,98.029 -4.201,-18.647 -5.531,15.08 -4.798,-1.762 9.015,-24.567 4.277,1.571 4.212,18.615 5.521,-15.048 4.796,1.762 -9.015,24.572 z"
           id="path21" />
        <path
           style="fill:#efb832;stroke:#244224;stroke-width:2px;stroke-opacity:1"
           d="m 353.133,96.742 -4.795,9.6 -4.539,-2.264 4.795,-9.604 -0.141,-17.323 4.964,2.478 -0.337,11.622 9.022,-7.288 4.964,2.478 z"
           id="path22" />
      </g>
      <g
         id="g30"
         style="stroke:#244224;stroke-opacity:1">
        <path
           style="fill:#efb832;stroke:#244224;stroke-width:2px;stroke-opacity:1"
           d="m 331.201,432.648 c -0.458,-1.165 -0.856,-2.222 -1.187,-3.17 -0.334,-0.946 -0.576,-1.846 -0.725,-2.697 -0.149,-0.846 -0.19,-1.669 -0.117,-2.46 0.069,-0.789 0.291,-1.617 0.664,-2.475 0.497,-1.144 1.183,-2.144 2.057,-3.002 0.874,-0.854 2.02,-1.563 3.434,-2.118 1.412,-0.555 2.736,-0.819 3.972,-0.791 1.237,0.028 2.425,0.287 3.572,0.786 0.855,0.376 1.579,0.827 2.17,1.359 0.593,0.529 1.118,1.161 1.572,1.89 0.461,0.729 0.888,1.553 1.29,2.473 0.405,0.924 0.832,1.965 1.291,3.129 0.456,1.162 0.851,2.217 1.183,3.165 0.336,0.95 0.582,1.846 0.745,2.692 0.16,0.841 0.208,1.661 0.134,2.453 -0.069,0.792 -0.293,1.617 -0.664,2.474 -0.499,1.144 -1.189,2.146 -2.077,3.01 -0.885,0.861 -2.034,1.568 -3.45,2.123 -1.414,0.558 -2.733,0.819 -3.957,0.786 -1.221,-0.031 -2.408,-0.294 -3.552,-0.792 -0.857,-0.373 -1.582,-0.829 -2.172,-1.359 -0.591,-0.532 -1.119,-1.161 -1.59,-1.884 -0.469,-0.724 -0.905,-1.548 -1.307,-2.466 -0.4,-0.922 -0.832,-1.966 -1.286,-3.126 z m 4.753,-1.87 c 0.458,1.162 0.86,2.116 1.204,2.861 0.347,0.745 0.665,1.35 0.954,1.817 0.289,0.467 0.566,0.825 0.836,1.071 0.27,0.253 0.567,0.459 0.893,0.619 0.495,0.256 1.047,0.396 1.653,0.437 0.608,0.039 1.241,-0.073 1.902,-0.336 0.659,-0.257 1.204,-0.611 1.622,-1.05 0.42,-0.444 0.736,-0.926 0.947,-1.457 0.128,-0.343 0.208,-0.697 0.234,-1.062 0.028,-0.365 -0.011,-0.817 -0.117,-1.355 -0.108,-0.539 -0.294,-1.195 -0.559,-1.973 -0.267,-0.778 -0.629,-1.749 -1.088,-2.912 -0.456,-1.162 -0.851,-2.119 -1.187,-2.867 -0.334,-0.753 -0.645,-1.353 -0.929,-1.81 -0.284,-0.456 -0.559,-0.807 -0.826,-1.055 -0.272,-0.252 -0.569,-0.454 -0.898,-0.618 -0.514,-0.241 -1.08,-0.39 -1.694,-0.438 -0.611,-0.05 -1.246,0.056 -1.91,0.318 -0.659,0.26 -1.198,0.613 -1.612,1.068 -0.412,0.453 -0.715,0.941 -0.905,1.461 -0.13,0.341 -0.208,0.695 -0.236,1.06 -0.026,0.367 0.009,0.813 0.112,1.34 0.101,0.525 0.279,1.177 0.534,1.961 0.259,0.781 0.614,1.758 1.07,2.92 z"
           id="path23" />
        <path
           style="fill:#efb832;stroke:#244224;stroke-width:2px;stroke-opacity:1"
           d="m 307.126,425.912 14.273,12.715 -4.284,-15.481 4.922,-1.363 6.984,25.224 -4.395,1.215 -14.263,-12.682 4.276,15.446 -4.927,1.361 -6.981,-25.22 z"
           id="path24" />
        <path
           style="fill:#efb832;stroke:#244224;stroke-width:2px;stroke-opacity:1"
           d="m 297.479,427.955 3.763,25.9 -17.059,2.478 -0.655,-4.511 12.002,-1.744 -0.88,-6.072 -10.224,1.482 -0.652,-4.506 10.219,-1.486 -0.915,-6.295 -12.004,1.744 -0.657,-4.508 z"
           id="path25" />
        <path
           style="fill:#efb832;stroke:#244224;stroke-width:2px;stroke-opacity:1"
           d="m 249.06,449.208 c 0.005,-1.105 0.205,-2.15 0.602,-3.141 0.396,-0.993 0.962,-1.859 1.7,-2.603 0.738,-0.744 1.649,-1.33 2.728,-1.753 1.081,-0.428 2.293,-0.637 3.638,-0.632 l 5.038,0.022 0.038,-9.852 5.108,0.018 -0.101,26.174 -10.144,-0.04 c -1.348,-0.005 -2.562,-0.224 -3.64,-0.657 -1.076,-0.431 -1.979,-1.026 -2.712,-1.774 -0.731,-0.752 -1.293,-1.624 -1.68,-2.617 -0.387,-0.998 -0.577,-2.04 -0.575,-3.145 z m 5.111,0.018 c -0.006,1.078 0.329,1.95 1,2.613 0.671,0.665 1.596,1.001 2.771,1.003 l 4.78,0.02 0.026,-7.165 -4.78,-0.02 c -1.172,-0.004 -2.101,0.316 -2.776,0.962 -0.676,0.646 -1.018,1.509 -1.021,2.587 z"
           id="path26" />
        <path
           style="fill:#efb832;stroke:#244224;stroke-width:2px;stroke-opacity:1"
           d="m 245.519,430.866 -2.934,26.005 -17.129,-1.93 0.51,-4.529 12.054,1.357 0.686,-6.1 -10.264,-1.155 0.512,-4.531 10.264,1.158 0.712,-6.319 -12.054,-1.357 0.51,-4.531 z"
           id="path27" />
        <path
           style="fill:#efb832;stroke:#244224;stroke-width:2px;stroke-opacity:1"
           d="m 209.083,424.764 6.472,17.989 3.624,-15.652 4.979,1.154 -5.906,25.498 -4.439,-1.029 -6.484,-17.953 -3.615,15.613 -4.979,-1.154 5.904,-25.496 z"
           id="path28" />
        <path
           style="fill:#efb832;stroke:#244224;stroke-width:2px;stroke-opacity:1"
           d="m 184.991,416.883 4.2,18.647 5.531,-15.08 4.798,1.762 -9.015,24.567 -4.277,-1.571 -4.213,-18.616 -5.521,15.048 -4.796,-1.762 9.015,-24.572 z"
           id="path29" />
        <path
           style="fill:#efb832;stroke:#244224;stroke-width:2px;stroke-opacity:1"
           d="m 162.068,418.17 4.795,-9.6 4.539,2.264 -4.795,9.604 0.141,17.323 -4.964,-2.478 0.337,-11.622 -9.022,7.288 -4.964,-2.478 z"
           id="path30" />
      </g>
      <g
         id="g31"
         style="stroke:#244224;stroke-opacity:1">
        <circle
           style="fill:#efb832;stroke:#244224;stroke-width:2px;stroke-opacity:1"
           cx="65.962997"
           cy="256"
           r="9.5600004"
           id="circle30" />
        <circle
           style="fill:#efb832;stroke:#244224;stroke-width:2px;stroke-opacity:1"
           cx="444.121"
           cy="256"
           r="9.5600004"
           id="circle31" />
      </g>
    </g>
    <g
       transform="matrix(0.65619,-0.004329,0.004564,0.691689,274.27383,145.75501)"
       style="mix-blend-mode:normal;stroke:#244224;stroke-opacity:1;filter:url(#filter39)"
       id="g39">
      <g
         id="XMLID_3_"
         style="stroke:#244224;stroke-opacity:1">
        <g
           id="g32"
           style="stroke:#244224;stroke-opacity:1">
          <path
             style="fill:#3aea33;stroke:#244224;stroke-width:3px;stroke-opacity:1;paint-order:fill"
             d="m 285.837,203.842 2.78,38.75 -41.61,61.16 -14.21,124.65 c -0.76,6.71 -6.34,11.84 -13.09,12.05 l -23.72,0.71 c -7.27,0.22 -13.43,-5.32 -13.96,-12.58 l -29.22,-397.09 31.47,-4.9 53.48,-0.38 39.77,9.6 -21.25,186.57 z"
             id="path31" />
          <path
             style="fill:#2ccc62;stroke:#244224;stroke-width:3px;stroke-opacity:1;paint-order:fill"
             d="m 254.077,6.882 23.45,28.93 -39.77,-9.6 -53.48,0.38 -31.47,4.9 19.57,-26.39 c 2.35,-3.17 6.11,-4.98 10.05,-4.84 l 62.76,2.19 c 3.46,0.12 6.71,1.74 8.89,4.43 z"
             id="path32" />
        </g>
        <g
           id="g33"
           style="stroke:#244224;stroke-opacity:1" />
      </g>
      <g
         id="g38"
         style="stroke:#244224;stroke-opacity:1">
        <path
           style="fill:#f8f8ff;stroke:#244224;stroke-opacity:1"
           d="m 189.233,190.642 c -2.294,0 -4.203,-1.807 -4.306,-4.122 l -3.486,-78.444 c -0.106,-2.379 1.737,-4.394 4.117,-4.5 2.404,-0.1 4.395,1.738 4.5,4.117 l 3.486,78.444 c 0.106,2.379 -1.737,4.394 -4.117,4.5 -0.064,0.004 -0.129,0.005 -0.194,0.005 z"
           id="path33" />
        <path
           style="fill:#f8f8ff;stroke:#244224;stroke-opacity:1"
           d="m 206.604,402.527 c -2.294,0 -4.203,-1.807 -4.306,-4.122 l -1.935,-43.531 c -0.106,-2.38 1.737,-4.395 4.117,-4.5 2.406,-0.103 4.395,1.738 4.5,4.117 l 1.935,43.531 c 0.106,2.38 -1.737,4.395 -4.117,4.5 -0.065,0.004 -0.13,0.005 -0.194,0.005 z"
           id="path34" />
        <path
           style="fill:#f8f8ff;stroke:#244224;stroke-opacity:1"
           d="m 203.426,331.017 c -2.294,0 -4.203,-1.807 -4.306,-4.122 l -0.416,-9.374 c -0.106,-2.38 1.738,-4.394 4.117,-4.5 2.408,-0.102 4.395,1.738 4.5,4.117 l 0.416,9.374 c 0.106,2.38 -1.738,4.394 -4.117,4.5 -0.065,0.004 -0.13,0.005 -0.194,0.005 z"
           id="path35" />
        <path
           style="fill:#f8f8ff;stroke:#244224;stroke-opacity:1"
           d="m 231.291,256.951 c -0.1,0 -0.2,-0.003 -0.301,-0.011 -2.376,-0.164 -4.17,-2.223 -4.006,-4.599 l 6.786,-98.41 c 0.164,-2.376 2.22,-4.176 4.6,-4.006 2.376,0.164 4.17,2.223 4.006,4.599 l -6.786,98.41 c -0.158,2.276 -2.052,4.017 -4.299,4.017 z"
           id="path36" />
        <path
           style="fill:#f8f8ff;stroke:#244224;stroke-opacity:1"
           d="m 239.98,130.955 c -0.1,0 -0.2,-0.003 -0.301,-0.011 -2.376,-0.164 -4.17,-2.223 -4.006,-4.599 l 1.015,-14.708 c 0.165,-2.376 2.22,-4.175 4.6,-4.006 2.376,0.164 4.17,2.223 4.006,4.599 l -1.015,14.708 c -0.158,2.276 -2.052,4.017 -4.299,4.017 z"
           id="path37" />
        <path
           style="fill:#f8f8ff;stroke:#244224;stroke-opacity:1"
           d="m 213.496,145.357 c -2.382,0 -4.313,-1.931 -4.313,-4.313 V 53.71 c 0,-2.382 1.931,-4.313 4.313,-4.313 2.382,0 4.313,1.931 4.313,4.313 v 87.334 c 0,2.382 -1.931,4.313 -4.313,4.313 z"
           id="path38" />
      </g>
    </g>
    <g
       id="object-4"
       transform="matrix(0.768286,0,0,0.686774,263.3461,258.85739)"
       style="mix-blend-mode:normal;stroke:#244224;stroke-opacity:1;filter:url(#filter39)">
      <polygon
         style="fill:#6495ed;stroke:#244224;stroke-width:2px;stroke-opacity:1"
         points="227.276,233.499 135.12,232.474 135.012,267.186 227.168,268.211 "
         id="polygon-1" />
      <path
         style="fill:#6495ed;stroke:#244224;stroke-width:2px;stroke-opacity:1"
         d="m 103.012,272.492 0.271,-45.852 c 0.038,-6.509 5.132,-11.745 11.379,-11.695 l 10.693,0.085 c 6.245,0.049 11.278,5.365 11.24,11.874 l -0.271,45.854 c -0.038,6.508 -5.132,11.744 -11.379,11.694 l -10.693,-0.085 c -6.246,-0.05 -11.278,-5.367 -11.24,-11.875"
         id="object-1" />
      <path
         style="fill:#6495ed;stroke:#244224;stroke-width:1.82709px;stroke-opacity:1"
         d="m 213.865,251.186 0.004,-0.686 c 0.335,-20.365 10.086,-40.077 27.448,-56.437 9.809,-9.245 30.127,-10.418 41.933,-2.138 8.449,5.934 9.681,14.922 2.518,21.484 -11.783,10.805 -18.22,23.783 -18.449,37.64 0.154,14.503 6.37,28.008 18.395,39.439 7.016,6.68 5.44,15.687 -3.226,21.45 l -0.04,0.026 c -11.524,7.673 -31.404,6.922 -40.746,-1.985 -18.06,-17.201 -27.961,-37.775 -27.837,-58.793"
         id="object-2" />
      <path
         style="fill:#6495ed;stroke:#244224;stroke-width:2px;stroke-opacity:1"
         d="m 257.963,250.891 c 0.146,10.209 5.148,19.739 14.299,28.153 l 373.036,1.852 120.786,-27.48 -120.413,-28.681 -372.061,-1.847 c -9.849,8.235 -15.445,17.789 -15.647,28.003"
         id="object-3" />
    </g>
    <g
       id="object-0"
       transform="matrix(0.644009,0,0,0.599076,526.32715,143.68919)"
       style="mix-blend-mode:normal;stroke:#244224;stroke-opacity:1;filter:url(#filter39)">
      <polygon
         style="fill:#b22222;stroke:#244224;stroke-width:2px;stroke-opacity:1"
         points="225.627,295.051 225.627,355.797 277.695,355.797 277.695,295.051 "
         id="polygon1" />
      <path
         style="fill:#b22222;stroke:#244224;stroke-width:2px;stroke-opacity:1"
         d="M 425.22,34.712 H 78.102 C 68.513,34.712 60.746,26.945 60.746,17.356 60.746,7.767 68.513,0 78.102,0 H 425.22 c 9.589,0 17.356,7.767 17.356,17.356 0,9.589 -7.766,17.356 -17.356,17.356"
         id="path1" />
      <path
         style="fill:#b22222;stroke:#244224;stroke-width:2px;stroke-opacity:1"
         d="M 425.22,138.847 H 78.102 c -9.589,0 -17.356,-7.767 -17.356,-17.356 0,-9.589 7.767,-17.356 17.356,-17.356 H 425.22 c 9.589,0 17.356,7.767 17.356,17.356 0,9.589 -7.766,17.356 -17.356,17.356"
         id="path2" />
      <polygon
         style="fill:#ff0000;stroke:#244224;stroke-width:2px;stroke-opacity:1"
         points="86.78,34.712 86.78,104.136 416.542,104.136 416.542,34.712 "
         id="polygon2" />
      <g
         id="g7"
         style="stroke:#244224;stroke-opacity:1">
        <path
           style="fill:#b22222;stroke:#244224;stroke-width:2px;stroke-opacity:1"
           d="m 216.949,78.102 h -69.424 c -4.799,0 -8.678,-3.888 -8.678,-8.678 0,-4.79 3.879,-8.678 8.678,-8.678 h 69.424 c 4.799,0 8.678,3.888 8.678,8.678 0,4.79 -3.879,8.678 -8.678,8.678"
           id="path3" />
        <path
           style="fill:#b22222;stroke:#244224;stroke-width:2px;stroke-opacity:1"
           d="m 355.797,78.102 h -69.424 c -4.799,0 -8.678,-3.888 -8.678,-8.678 0,-4.79 3.879,-8.678 8.678,-8.678 h 69.424 c 4.799,0 8.678,3.888 8.678,8.678 0,4.79 -3.879,8.678 -8.678,8.678"
           id="path4" />
        <path
           style="fill:#b22222;stroke:#244224;stroke-width:2px;stroke-opacity:1"
           d="m 260.339,69.424 c 0,4.79 -3.888,8.678 -8.678,8.678 -4.79,0 -8.678,-3.888 -8.678,-8.678 0,-4.79 3.888,-8.678 8.678,-8.678 4.79,0 8.678,3.887 8.678,8.678"
           id="path5" />
        <path
           style="fill:#b22222;stroke:#244224;stroke-width:2px;stroke-opacity:1"
           d="m 399.186,69.424 c 0,4.79 -3.888,8.678 -8.678,8.678 -4.79,0 -8.678,-3.888 -8.678,-8.678 0,-4.79 3.888,-8.678 8.678,-8.678 4.79,0 8.678,3.887 8.678,8.678"
           id="path6" />
        <path
           style="fill:#b22222;stroke:#244224;stroke-width:2px;stroke-opacity:1"
           d="m 104.136,69.424 c 0,-4.79 3.888,-8.678 8.678,-8.678 4.79,0 8.678,3.888 8.678,8.678 0,4.79 -3.888,8.678 -8.678,8.678 -4.79,0 -8.678,-3.888 -8.678,-8.678"
           id="path7" />
      </g>
      <path
         style="fill:#ff0000;stroke:#244224;stroke-width:2px;stroke-opacity:1"
         d="m 86.78,138.847 c 0,91.058 73.823,164.881 164.881,164.881 91.058,0 164.881,-73.823 164.881,-164.881 z"
         id="path8" />
      <path
         style="fill:#ff0000;stroke:#244224;stroke-width:2px;stroke-opacity:1"
         d="m 286.373,390.508 h -69.424 c -9.546,0 -17.356,-7.81 -17.356,-17.356 0,-9.546 7.81,-17.356 17.356,-17.356 h 69.424 c 9.546,0 17.356,7.81 17.356,17.356 0,9.546 -7.81,17.356 -17.356,17.356"
         id="path9" />
      <path
         style="fill:#ff0000;stroke:#244224;stroke-width:2px;stroke-opacity:1"
         d="M 321.085,503.322 H 182.237 c -9.546,0 -17.356,-7.81 -17.356,-17.356 0,-9.546 7.81,-17.356 17.356,-17.356 h 138.847 c 9.546,0 17.356,7.81 17.356,17.356 10e-4,9.546 -7.809,17.356 -17.355,17.356"
         id="path10" />
      <path
         style="fill:#b22222;stroke:#244224;stroke-width:2px;stroke-opacity:1"
         d="m 277.695,390.508 h -52.068 c 0,79.36 -28.681,76.071 -43.39,78.102 h 138.847 c -14.708,-2.03 -43.389,1.258 -43.389,-78.102"
         id="path11" />
      <path
         style="fill:#b22222;stroke:#244224;stroke-width:2px;stroke-opacity:1"
         d="m 225.627,260.339 c -47.85,0 -86.78,-38.929 -86.78,-86.78 0,-4.79 3.879,-8.678 8.678,-8.678 4.799,0 8.678,3.888 8.678,8.678 0,38.279 31.145,69.424 69.424,69.424 4.799,0 8.678,3.888 8.678,8.678 0,4.79 -3.879,8.678 -8.678,8.678"
         id="path12" />
    </g>
  </g>
</svg>
