<?xml version="1.0" encoding="UTF-8" standalone="no"?>
<svg
   viewBox="248.8829 -370.0005 515 838.0005"
   width="515px"
   height="838px"
   preserveAspectRatio="none"
   version="1.1"
   id="svg22"
   sodipodi:docname="punteggio_settebello.svg"
   inkscape:version="1.3.2 (091e20ef0f, 2023-11-25)"
   inkscape:export-filename="punteggio_settebello.png"
   inkscape:export-xdpi="96"
   inkscape:export-ydpi="96"
   xmlns:inkscape="http://www.inkscape.org/namespaces/inkscape"
   xmlns:sodipodi="http://sodipodi.sourceforge.net/DTD/sodipodi-0.dtd"
   xmlns="http://www.w3.org/2000/svg"
   xmlns:svg="http://www.w3.org/2000/svg">
  <defs
     id="defs22">
    <filter
       inkscape:collect="always"
       style="color-interpolation-filters:sRGB"
       id="filter22"
       x="-0.0058825256"
       y="-0.0036151538"
       width="1.0117651"
       height="1.0072303">
      <feGaussianBlur
         inkscape:collect="always"
         stdDeviation="0.8456253"
         id="feGaussianBlur22" />
    </filter>
  </defs>
  <sodipodi:namedview
     id="namedview22"
     pagecolor="#ffffff"
     bordercolor="#000000"
     borderopacity="0.25"
     inkscape:showpageshadow="2"
     inkscape:pageopacity="0.0"
     inkscape:pagecheckerboard="0"
     inkscape:deskcolor="#d1d1d1"
     inkscape:zoom="0.96062053"
     inkscape:cx="257.64596"
     inkscape:cy="419"
     inkscape:window-width="1920"
     inkscape:window-height="1011"
     inkscape:window-x="0"
     inkscape:window-y="0"
     inkscape:window-maximized="1"
     inkscape:current-layer="svg22" />
  <g
     id="object-1"
     transform="matrix(1, 0, 0, 1, 0, -5.684341886080802e-14)"
     style="stroke:#244224;stroke-opacity:1;filter:url(#filter22)">
    <g
       transform="matrix(1, 0, 0, 1, 251.882874, -64.000488)"
       id="g3"
       style="stroke:#244224;stroke-opacity:1">
      <g
         transform="matrix(1, 0, 0, 1, 0, -364)"
         id="g2"
         style="stroke:#244224;stroke-opacity:1">
        <path
           class="st0"
           d="M512,152.469c0-21.469-17.422-38.875-38.891-38.875c-21.484,0-38.906,17.406-38.906,38.875&#10;		c0,10.5,4.172,20.016,10.938,27c-26.453,54.781-77.016,73.906-116.203,56.594c-34.906-15.438-47.781-59.563-52.141-93.75&#10;		c14.234-7.484,23.938-22.391,23.938-39.594C300.734,78.016,280.719,58,256,58c-24.703,0-44.734,20.016-44.734,44.719&#10;		c0,17.203,9.703,32.109,23.938,39.594c-4.359,34.188-17.234,78.313-52.141,93.75c-39.188,17.313-89.75-1.813-116.203-56.594&#10;		c6.766-6.984,10.938-16.5,10.938-27c0-21.469-17.422-38.875-38.891-38.875C17.422,113.594,0,131,0,152.469&#10;		c0,19.781,14.781,36.078,33.875,38.547l44.828,164.078h354.594l44.828-164.078C497.234,188.547,512,172.25,512,152.469z"
           style="fill:rgb(239, 184, 50);stroke-width:2px;stroke:#244224;stroke-opacity:1"
           id="path1" />
        <path
           class="st0"
           d="M455.016,425.063c0,15.984-12.953,28.938-28.953,28.938H85.938C69.953,454,57,441.047,57,425.063v-2.406&#10;		c0-16,12.953-28.953,28.938-28.953h340.125c16,0,28.953,12.953,28.953,28.953V425.063z"
           style="fill:rgb(239, 184, 50);stroke-width:2px;stroke:#244224;stroke-opacity:1"
           id="path2" />
      </g>
    </g>
    <g
       transform="matrix(1, 0, 0, 1, -3, -38)"
       id="g22"
       style="stroke:#244224;stroke-opacity:1">
      <g
         id="object-0"
         transform="matrix(1, 0, 0, 1, 251.882874, -6.000003)"
         style="stroke:#244224;stroke-opacity:1">
        <path
           style="fill:rgb(239, 184, 50);stroke-width:2px;stroke:#244224;stroke-opacity:1"
           d="M256,512C114.841,512,0,397.159,0,256S114.841,0,256,0s256,114.841,256,256S397.159,512,256,512z"
           id="path3" />
        <g
           style="opacity:0.5;stroke:#244224;stroke-opacity:1"
           id="g4">
          <path
             style="fill:rgb(174, 129, 50);stroke-width:2px;stroke:#244224;stroke-opacity:1"
             d="M256.001,472.633c-119.452,0-216.633-97.181-216.633-216.633s97.18-216.633,216.633-216.633&#10;				c119.452,0,216.633,97.18,216.633,216.633S375.453,472.633,256.001,472.633z M256.001,94.604&#10;				c-88.994,0-161.396,72.402-161.396,161.396s72.402,161.396,161.396,161.396c88.994,0,161.396-72.402,161.396-161.396&#10;				S344.994,94.604,256.001,94.604z"
             id="path4" />
        </g>
        <g
           id="g12"
           style="stroke:#244224;stroke-opacity:1">
          <path
             style="fill:rgb(239, 184, 50);stroke-width:2px;stroke:#244224;stroke-opacity:1"
             d="M184,82.265c0.458,1.164,0.856,2.222,1.187,3.17c0.334,0.946,0.576,1.846,0.725,2.697&#10;				c0.15,0.847,0.19,1.669,0.117,2.461c-0.069,0.789-0.291,1.617-0.664,2.474c-0.497,1.144-1.183,2.144-2.057,3.002&#10;				c-0.874,0.854-2.02,1.563-3.434,2.118c-1.411,0.555-2.736,0.819-3.972,0.791c-1.236-0.028-2.425-0.287-3.572-0.786&#10;				c-0.855-0.376-1.579-0.827-2.17-1.359c-0.593-0.529-1.119-1.161-1.572-1.89c-0.461-0.729-0.888-1.553-1.29-2.473&#10;				c-0.405-0.924-0.833-1.965-1.291-3.129c-0.456-1.162-0.851-2.217-1.183-3.166c-0.336-0.95-0.582-1.846-0.745-2.692&#10;				c-0.16-0.841-0.208-1.661-0.134-2.453c0.069-0.791,0.293-1.617,0.664-2.474c0.499-1.144,1.189-2.146,2.077-3.009&#10;				c0.885-0.861,2.034-1.568,3.45-2.123c1.414-0.558,2.733-0.819,3.957-0.786c1.221,0.031,2.408,0.295,3.552,0.791&#10;				c0.857,0.373,1.581,0.829,2.172,1.359c0.591,0.532,1.118,1.161,1.59,1.884c0.469,0.724,0.905,1.548,1.307,2.466&#10;				C183.114,80.06,183.547,81.104,184,82.265z M179.247,84.134c-0.458-1.162-0.86-2.116-1.204-2.861&#10;				c-0.347-0.745-0.665-1.35-0.954-1.817c-0.289-0.467-0.566-0.825-0.836-1.07c-0.27-0.253-0.567-0.459-0.893-0.619&#10;				c-0.495-0.255-1.047-0.396-1.653-0.437c-0.608-0.039-1.241,0.074-1.902,0.336c-0.66,0.257-1.205,0.611-1.622,1.05&#10;				c-0.419,0.444-0.736,0.926-0.947,1.457c-0.128,0.343-0.208,0.697-0.233,1.062c-0.028,0.365,0.011,0.817,0.117,1.356&#10;				c0.108,0.538,0.294,1.195,0.559,1.973c0.268,0.778,0.629,1.749,1.088,2.912c0.456,1.162,0.851,2.119,1.187,2.867&#10;				c0.334,0.753,0.645,1.354,0.929,1.81s0.559,0.807,0.826,1.055c0.272,0.252,0.569,0.454,0.898,0.618&#10;				c0.514,0.241,1.08,0.39,1.694,0.438c0.611,0.05,1.246-0.056,1.91-0.318c0.659-0.26,1.198-0.613,1.612-1.068&#10;				c0.412-0.453,0.715-0.941,0.904-1.461c0.13-0.341,0.208-0.695,0.236-1.06c0.026-0.367-0.009-0.813-0.112-1.34&#10;				c-0.101-0.525-0.279-1.177-0.534-1.961C180.059,86.273,179.704,85.297,179.247,84.134z"
             id="path5" />
          <path
             style="fill:rgb(239, 184, 50);stroke-width:2px;stroke:#244224;stroke-opacity:1"
             d="M208.075,89.001l-14.273-12.715l4.284,15.481l-4.922,1.363l-6.984-25.224l4.395-1.215&#10;				l14.263,12.682l-4.276-15.446l4.927-1.361l6.981,25.22L208.075,89.001z"
             id="path6" />
          <path
             style="fill:rgb(239, 184, 50);stroke-width:2px;stroke:#244224;stroke-opacity:1"
             d="M217.723,86.957l-3.763-25.9l17.059-2.478l0.655,4.511l-12.002,1.744l0.88,6.072l10.224-1.482&#10;				l0.652,4.506l-10.219,1.486l0.915,6.295l12.004-1.744l0.657,4.508L217.723,86.957z"
             id="path7" />
          <path
             style="fill:rgb(239, 184, 50);stroke-width:2px;stroke:#244224;stroke-opacity:1"
             d="M266.141,65.704c-0.005,1.105-0.205,2.15-0.602,3.141c-0.396,0.993-0.962,1.859-1.7,2.604&#10;				c-0.738,0.744-1.649,1.33-2.728,1.753c-1.081,0.428-2.293,0.637-3.638,0.632l-5.039-0.022l-0.038,9.852l-5.108-0.018&#10;				l0.101-26.174l10.144,0.04c1.348,0.005,2.562,0.224,3.64,0.657c1.076,0.431,1.979,1.026,2.712,1.774&#10;				c0.731,0.752,1.293,1.624,1.68,2.617C265.954,63.557,266.144,64.599,266.141,65.704z M261.031,65.686&#10;				c0.006-1.078-0.329-1.95-1-2.613c-0.671-0.665-1.596-1.002-2.771-1.003l-4.78-0.02l-0.026,7.165l4.78,0.02&#10;				c1.173,0.004,2.101-0.316,2.776-0.962C260.685,67.627,261.027,66.764,261.031,65.686z"
             id="path8" />
          <path
             style="fill:rgb(239, 184, 50);stroke-width:2px;stroke:#244224;stroke-opacity:1"
             d="M269.683,84.046l2.934-26.005l17.129,1.93l-0.51,4.529l-12.054-1.357l-0.686,6.1l10.263,1.155&#10;				l-0.512,4.531l-10.264-1.158l-0.712,6.319l12.054,1.357l-0.51,4.531L269.683,84.046z"
             id="path9" />
          <path
             style="fill:rgb(239, 184, 50);stroke-width:2px;stroke:#244224;stroke-opacity:1"
             d="M306.119,90.148l-6.472-17.989l-3.624,15.652l-4.979-1.154l5.906-25.498l4.439,1.029l6.484,17.953&#10;				l3.615-15.613l4.979,1.154l-5.904,25.496L306.119,90.148z"
             id="path10" />
          <path
             style="fill:rgb(239, 184, 50);stroke-width:2px;stroke:#244224;stroke-opacity:1"
             d="M330.211,98.029l-4.201-18.647l-5.531,15.08l-4.798-1.762l9.015-24.567l4.277,1.571l4.212,18.615&#10;				l5.521-15.048l4.796,1.762l-9.015,24.572L330.211,98.029z"
             id="path11" />
          <path
             style="fill:rgb(239, 184, 50);stroke-width:2px;stroke:#244224;stroke-opacity:1"
             d="M353.133,96.742l-4.795,9.6l-4.539-2.264l4.795-9.604l-0.141-17.323l4.964,2.478l-0.337,11.622&#10;				l9.022-7.288l4.964,2.478L353.133,96.742z"
             id="path12" />
        </g>
        <g
           id="g20"
           style="stroke:#244224;stroke-opacity:1">
          <path
             style="fill:rgb(239, 184, 50);stroke-width:2px;stroke:#244224;stroke-opacity:1"
             d="M331.201,432.648c-0.458-1.165-0.856-2.222-1.187-3.17c-0.334-0.946-0.576-1.846-0.725-2.697&#10;				c-0.149-0.846-0.19-1.669-0.117-2.46c0.069-0.789,0.291-1.617,0.664-2.475c0.497-1.144,1.183-2.144,2.057-3.002&#10;				c0.874-0.854,2.02-1.563,3.434-2.118c1.412-0.555,2.736-0.819,3.972-0.791c1.237,0.028,2.425,0.287,3.572,0.786&#10;				c0.855,0.376,1.579,0.827,2.17,1.359c0.593,0.529,1.118,1.161,1.572,1.89c0.461,0.729,0.888,1.553,1.29,2.473&#10;				c0.405,0.924,0.832,1.965,1.291,3.129c0.456,1.162,0.851,2.217,1.183,3.165c0.336,0.95,0.582,1.846,0.745,2.692&#10;				c0.16,0.841,0.208,1.661,0.134,2.453c-0.069,0.792-0.293,1.617-0.664,2.474c-0.499,1.144-1.189,2.146-2.077,3.01&#10;				c-0.885,0.861-2.034,1.568-3.45,2.123c-1.414,0.558-2.733,0.819-3.957,0.786c-1.221-0.031-2.408-0.294-3.552-0.792&#10;				c-0.857-0.373-1.582-0.829-2.172-1.359c-0.591-0.532-1.119-1.161-1.59-1.884c-0.469-0.724-0.905-1.548-1.307-2.466&#10;				C332.087,434.852,331.655,433.808,331.201,432.648z M335.954,430.778c0.458,1.162,0.86,2.116,1.204,2.861&#10;				c0.347,0.745,0.665,1.35,0.954,1.817c0.289,0.467,0.566,0.825,0.836,1.071c0.27,0.253,0.567,0.459,0.893,0.619&#10;				c0.495,0.256,1.047,0.396,1.653,0.437c0.608,0.039,1.241-0.073,1.902-0.336c0.659-0.257,1.204-0.611,1.622-1.05&#10;				c0.42-0.444,0.736-0.926,0.947-1.457c0.128-0.343,0.208-0.697,0.234-1.062c0.028-0.365-0.011-0.817-0.117-1.355&#10;				c-0.108-0.539-0.294-1.195-0.559-1.973c-0.267-0.778-0.629-1.749-1.088-2.912c-0.456-1.162-0.851-2.119-1.187-2.867&#10;				c-0.334-0.753-0.645-1.353-0.929-1.81c-0.284-0.456-0.559-0.807-0.826-1.055c-0.272-0.252-0.569-0.454-0.898-0.618&#10;				c-0.514-0.241-1.08-0.39-1.694-0.438c-0.611-0.05-1.246,0.056-1.91,0.318c-0.659,0.26-1.198,0.613-1.612,1.068&#10;				c-0.412,0.453-0.715,0.941-0.905,1.461c-0.13,0.341-0.208,0.695-0.236,1.06c-0.026,0.367,0.009,0.813,0.112,1.34&#10;				c0.101,0.525,0.279,1.177,0.534,1.961C335.143,428.639,335.498,429.616,335.954,430.778z"
             id="path13" />
          <path
             style="fill:rgb(239, 184, 50);stroke-width:2px;stroke:#244224;stroke-opacity:1"
             d="M307.126,425.912l14.273,12.715l-4.284-15.481l4.922-1.363l6.984,25.224l-4.395,1.215&#10;				l-14.263-12.682l4.276,15.446l-4.927,1.361l-6.981-25.22L307.126,425.912z"
             id="path14" />
          <path
             style="fill:rgb(239, 184, 50);stroke-width:2px;stroke:#244224;stroke-opacity:1"
             d="M297.479,427.955l3.763,25.9l-17.059,2.478l-0.655-4.511l12.002-1.744l-0.88-6.072l-10.224,1.482&#10;				l-0.652-4.506l10.219-1.486l-0.915-6.295l-12.004,1.744l-0.657-4.508L297.479,427.955z"
             id="path15" />
          <path
             style="fill:rgb(239, 184, 50);stroke-width:2px;stroke:#244224;stroke-opacity:1"
             d="M249.06,449.208c0.005-1.105,0.205-2.15,0.602-3.141c0.396-0.993,0.962-1.859,1.7-2.603&#10;				c0.738-0.744,1.649-1.33,2.728-1.753c1.081-0.428,2.293-0.637,3.638-0.632l5.038,0.022l0.038-9.852l5.108,0.018l-0.101,26.174&#10;				l-10.144-0.04c-1.348-0.005-2.562-0.224-3.64-0.657c-1.076-0.431-1.979-1.026-2.712-1.774c-0.731-0.752-1.293-1.624-1.68-2.617&#10;				C249.248,451.355,249.058,450.313,249.06,449.208z M254.171,449.226c-0.006,1.078,0.329,1.95,1,2.613&#10;				c0.671,0.665,1.596,1.001,2.771,1.003l4.78,0.02l0.026-7.165l-4.78-0.02c-1.172-0.004-2.101,0.316-2.776,0.962&#10;				C254.516,447.285,254.174,448.148,254.171,449.226z"
             id="path16" />
          <path
             style="fill:rgb(239, 184, 50);stroke-width:2px;stroke:#244224;stroke-opacity:1"
             d="M245.519,430.866l-2.934,26.005l-17.129-1.93l0.51-4.529l12.054,1.357l0.686-6.1l-10.264-1.155&#10;				l0.512-4.531l10.264,1.158l0.712-6.319l-12.054-1.357l0.51-4.531L245.519,430.866z"
             id="path17" />
          <path
             style="fill:rgb(239, 184, 50);stroke-width:2px;stroke:#244224;stroke-opacity:1"
             d="M209.083,424.764l6.472,17.989l3.624-15.652l4.979,1.154l-5.906,25.498l-4.439-1.029&#10;				l-6.484-17.953l-3.615,15.613l-4.979-1.154l5.904-25.496L209.083,424.764z"
             id="path18" />
          <path
             style="fill:rgb(239, 184, 50);stroke-width:2px;stroke:#244224;stroke-opacity:1"
             d="M184.991,416.883l4.2,18.647l5.531-15.08l4.798,1.762l-9.015,24.567l-4.277-1.571l-4.213-18.616&#10;				l-5.521,15.048l-4.796-1.762l9.015-24.572L184.991,416.883z"
             id="path19" />
          <path
             style="fill:rgb(239, 184, 50);stroke-width:2px;stroke:#244224;stroke-opacity:1"
             d="M162.068,418.17l4.795-9.6l4.539,2.264l-4.795,9.604l0.141,17.323l-4.964-2.478l0.337-11.622&#10;				l-9.022,7.288l-4.964-2.478L162.068,418.17z"
             id="path20" />
        </g>
        <g
           id="g21"
           style="stroke:#244224;stroke-opacity:1">
          <circle
             style="fill:rgb(239, 184, 50);stroke-width:2px;stroke:#244224;stroke-opacity:1"
             cx="65.963"
             cy="256"
             r="9.56"
             id="circle20" />
          <circle
             style="fill:rgb(239, 184, 50);stroke-width:2px;stroke:#244224;stroke-opacity:1"
             cx="444.121"
             cy="256"
             r="9.56"
             id="circle21" />
        </g>
      </g>
    </g>
  </g>
</svg>
